<svg xmlns="http://www.w3.org/2000/svg" viewBox="0 0 48 48"><defs><style>.cls-1{fill:#9290c3;}.cls-2{fill:#f5f5f5;}</style></defs><g id="Layer_2" data-name="Layer 2"><g id="Layer_1-2" data-name="Layer 1"><rect class="cls-1" width="48" height="48" rx="5"/><path class="cls-2" d="M31.93,19.15a10.49,10.49,0,0,1-3.08,7.44h0l-7.44-7.44,7.44-7.43A10.48,10.48,0,0,1,31.93,19.15Z"/><path class="cls-2" d="M28.25,11.08l-7.44,7.44-7.44-7.44h0a10.52,10.52,0,0,1,14.88,0Z"/><path class="cls-2" d="M29.46,27.21a11.08,11.08,0,0,0,1.8-2.34s.15.12.29.26a10.51,10.51,0,0,1,0,14.87h0l-7.44-7.44Z"/><path class="cls-2" d="M28.23,27.21l-7.44,7.44-4.05-4a4.8,4.8,0,0,1,0-6.78l4.05-4.05Z"/></g></g></svg>