<svg xmlns="http://www.w3.org/2000/svg" viewBox="0 0 237.59 357.73"><defs><style>.cls-1{fill:#1b1a55;}</style></defs><g id="Layer_2" data-name="Layer 2"><g id="Layer_1-2" data-name="Layer 1"><path class="cls-1" d="M207.42,124.7A117.19,117.19,0,0,1,173,207.83h0L89.85,124.7,173,41.56A117.2,117.2,0,0,1,207.42,124.7Z"/><path class="cls-1" d="M166.27,34.43,83.13,117.57,0,34.44H0a117.57,117.57,0,0,1,166.26,0Z"/><path class="cls-1" d="M179.89,214.7A127.21,127.21,0,0,0,200,188.64a32.67,32.67,0,0,1,3.19,2.82,117.58,117.58,0,0,1,0,166.27h0L120,274.6Z"/><path class="cls-1" d="M166,214.75,82.89,297.89,37.61,252.61a53.55,53.55,0,0,1,0-75.71L82.9,131.62Z"/></g></g></svg>