<svg xmlns="http://www.w3.org/2000/svg" viewBox="0 0 187.09 153.76"><defs><style>.cls-1{fill:#ee7335;}.cls-1,.cls-2{fill-rule:evenodd;}.cls-2{fill:#fff;}</style></defs><g id="Layer_2" data-name="Layer 2"><g id="Layer_1-2" data-name="Layer 1"><polygon class="cls-1" points="0 0 187.09 0 187.09 153.76 0 153.76 0 0 0 0"/><path class="cls-2" d="M154.41,108.91V88.41H143.83V99.63a5.45,5.45,0,1,1-10.89,0V44.53H122.37v64.38Z"/><path class="cls-2" d="M75,97.7c0,6.41-4.17,12.18-16,12.18s-16-7.53-16-12.18V88.41H53.5V99.63a5.45,5.45,0,1,0,10.89-.08v-55H75V97.7Z"/><path class="cls-2" d="M114.68,66V55c0-7.13-6.48-10.49-10.57-10.49H83v64.38h21.14c7.93,0,10.57-5.13,10.57-8.4V81.21c0-2.73-2.8-6.33-7-6.33,4.17,0,7-5.69,7-8.89ZM100,103.65l-6.41,0V77.68H100c4.16,0,4.16,3,4.16,13s0,12.92-4.16,12.92Zm-.64-31.4H93.54V50.61h5.77c3.84,0,4.8.81,4.8,10.89s-1,10.75-4.8,10.75Z"/><path class="cls-2" d="M48.21,69.16a6.12,6.12,0,1,0,6.12,6.12,6.12,6.12,0,0,0-6.12-6.12Z"/><polygon class="cls-2" points="38.44 44.53 48.21 66.79 57.98 44.53 38.44 44.53 38.44 44.53"/></g></g></svg>