<svg xmlns="http://www.w3.org/2000/svg" viewBox="0 0 187.09 38.85"><defs><style>.cls-1{fill:#e30613;fill-rule:evenodd;}</style></defs><g id="Layer_2" data-name="Layer 2"><g id="Layer_1-2" data-name="Layer 1"><path class="cls-1" d="M14.75,27.65a17.18,17.18,0,0,0,14.6,8.2c9,0,14-7.79,14-7.79h0L44,30.13h0c-4.18,5.44-11.66,8.72-20,8.72-9.63,0-17.93-4.59-21.75-11.21A16.36,16.36,0,0,1,0,19.42C0,8.7,10.74,0,24,0c9.36,0,16.89,4,20.85,9.82h0l-15.71,9.4,9-13.76h0c-2.57-1.61-5.72-3.12-9-3.12A16.94,16.94,0,0,0,12.36,19.21a16.14,16.14,0,0,0,2.39,8.44Z"/><path class="cls-1" d="M56.8,27.64a6,6,0,0,0-.07.95,6.32,6.32,0,0,0,12.64,0,6,6,0,0,0-.07-.95,6.32,6.32,0,0,0-12.5,0Zm23.45,0,3.14,10.58h-11L70.21,31h0c-1.45,4.18-6.35,7.25-12.16,7.25-7,0-12.6-4.4-12.6-9.82,0-.25,0-.5,0-.76.5-5.06,5.93-9.06,12.57-9.06a14.33,14.33,0,0,1,9.45,3.33h0l-3-10H51.85S54,10.61,63.29,7.22s12.28,4.65,12.28,4.65h0l4.68,15.77Z"/><path class="cls-1" d="M115.48,27.64V38.22H104.14V15h0a3.09,3.09,0,0,0-6-1.12h0V38.22H87V11.87H80.54s9-5.47,12.16-5.47a5.5,5.5,0,0,1,5.44,5.19c4.37-2.36,8.69-5.19,11.67-5.19a5.67,5.67,0,0,1,5.67,5.52h0V27.64Z"/><path class="cls-1" d="M133,27.64l1.58,5.21h0a4.1,4.1,0,0,0,4.12,4,4.18,4.18,0,0,0,4.17-4.18,3.87,3.87,0,0,0,0-.48h0l-1.34-4.58-4.71-16.1h0a4.17,4.17,0,0,0-4.15-3.71,4.83,4.83,0,0,0-4.41,4h0L133,27.64Zm18,0a16.34,16.34,0,1,1,.82-5.12,16.33,16.33,0,0,1-.82,5.12Z"/><path class="cls-1" d="M169.76,27.64V38.22H158.64V11.87h-6.23s8.76-5.47,11.9-5.47a5.49,5.49,0,0,1,5.43,5.19c4.37-2.36,8.7-5.19,11.68-5.19a5.68,5.68,0,0,1,5.67,5.52h0v26.3H175.75V15h0a3.1,3.1,0,0,0-6-1.12h0V27.64Z"/></g></g></svg>