<svg xmlns="http://www.w3.org/2000/svg" viewBox="0 0 187.09 32.63"><defs><style>.cls-1{fill:#fff;fill-rule:evenodd;}</style></defs><g id="Layer_2" data-name="Layer 2"><g id="Layer_1-2" data-name="Layer 1"><path class="cls-1" d="M184.24,26.35a2.85,2.85,0,1,0,2.85,2.84,2.85,2.85,0,0,0-2.85-2.84Zm0,5.36a2.51,2.51,0,1,1,2.5-2.52,2.51,2.51,0,0,1-2.5,2.52Z"/><path class="cls-1" d="M185.71,28.45a.78.78,0,0,0-.36-.69,1.5,1.5,0,0,0-.78-.16h-1.39v3.19h.39V29.32h.72l.91,1.47h.46l-1-1.47h0c.57,0,1-.25,1-.87Zm-1.54.56h-.6V27.89h.91c.4,0,.83.06.83.55,0,.65-.69.57-1.14.57Z"/><path class="cls-1" d="M167.53,13l5.83-6.23h0a1.93,1.93,0,0,0,.5-1c0-.46-.39-.64-1.62-.64h-1.48V1.19h15.93V5.12h-2.1c-2.41,0-2.86.37-6.23,4.62h0l-9.23,10v6.07h0c0,1.56.79,2.11,3,2.11h3.48v3.79h-22.3V27.88h3.48c2.25,0,3-.55,3-2.11h0V19.7L149,7.68h0c-1.79-2.1-1.54-2.56-6.54-2.56h0V1.19h20.17V5.12h-1.44c-1.46,0-2.08.28-2.08.82s.45.83.73,1.19h0l5.5,6h0a1.33,1.33,0,0,0,2.19-.08Z"/><path class="cls-1" d="M32.21,1.19h4.87v11h-4.5c-.4-2.2-1.77-3.05-3-4.2-2.26-2.07-7.14-3.8-11.25-3.8C13,4.16,8.52,5.81,8.52,8.23c0,6.71,30.35,1.37,30.35,14.07,0,6.63-6.5,10.33-18.18,10.33A34.31,34.31,0,0,1,6.93,29.46c-1.13-.66-1.61.61-1.82,2.21h-5V20.34H4.63C5.62,23.21,7,23.81,8.26,25c2.18,2,7.39,3.47,12.17,3.43,7.2-.07,9.68-1.65,9.68-3.93s-2.45-2.83-10.34-4.07h0l-6.7-1.09h0C5.5,18.14,0,16.45,0,10.42,0,4.16,7,.23,18,.23,22.61.23,26.5.85,30.22,3c1,.67,2,.75,2-1.77Z"/><path class="cls-1" d="M127.15,19.55l.1-12.19h0c0-1.6-.83-2.15-3.21-2.15h-2.79V1.42H139V5.21H136.7c-2.38,0-3.21.55-3.21,2.15h0V31.9l-7-.06L104,10.52V26h0c0,1.56.83,2.15,3.21,2.15h3.09V31.9H91.86V28.15h3.06c2.37,0,3.21-.59,3.21-2.15h0V7.36h0c0-1.6-.84-2.15-3.21-2.15H91.86V1.42h16l19.33,18.13Z"/><path class="cls-1" d="M67.63,0c-14.16,0-23,6.26-23,16.31,0,9.87,8.75,16.09,22.6,16.09,14.71,0,23.27-6.13,23.27-16.59C90.47,6.4,81.24,0,67.63,0Zm-.32,28.42C59.47,28.42,55,23.9,55,16.08,55,8.45,59.67,3.93,67.7,3.93c7.71,0,12.22,4.62,12.22,12.47,0,7.68-4.58,12-12.61,12Z"/></g></g></svg>