<svg xmlns="http://www.w3.org/2000/svg" viewBox="0 0 150 61.72"><defs><style>.cls-1{fill:#1b1a55;}</style></defs><g id="Layer_2" data-name="Layer 2"><g id="Layer_1-2" data-name="Layer 1"><path class="cls-1" d="M35.78,21.51a20.22,20.22,0,0,1-5.94,14.34h0L15.5,21.51,29.84,7.17A20.22,20.22,0,0,1,35.78,21.51Z"/><path class="cls-1" d="M28.69,5.94,14.34,20.28,0,5.94H0a20.28,20.28,0,0,1,28.68,0Z"/><path class="cls-1" d="M31,37a21.76,21.76,0,0,0,3.47-4.5,7,7,0,0,1,.55.49,20.28,20.28,0,0,1,0,28.68h0L20.71,47.37Z"/><path class="cls-1" d="M28.64,37.05,14.3,51.39,6.49,43.58a9.23,9.23,0,0,1,0-13.06l7.81-7.81Z"/><path class="cls-1" d="M51.05,38.1A.45.45,0,0,1,50.7,38a.51.51,0,0,1-.12-.35V24.11a.52.52,0,0,1,.12-.36.45.45,0,0,1,.35-.13H56.1a5.77,5.77,0,0,1,3.71,1.09A3.92,3.92,0,0,1,61.17,28a4.07,4.07,0,0,1-.79,2.6A4.16,4.16,0,0,1,58.21,32l3.19,5.51a.53.53,0,0,1,.06.23.39.39,0,0,1-.13.29.44.44,0,0,1-.3.12H60a.63.63,0,0,1-.51-.19,2.48,2.48,0,0,1-.29-.37l-3-5.25H52.61v5.33a.46.46,0,0,1-.5.48Zm1.56-7.57H56a3.49,3.49,0,0,0,2.32-.66,2.38,2.38,0,0,0,.76-1.93A2.42,2.42,0,0,0,58.35,26,3.43,3.43,0,0,0,56,25.35H52.61Z"/><path class="cls-1" d="M64.61,38.1a.47.47,0,0,1-.36-.13.51.51,0,0,1-.12-.35V24.11a.52.52,0,0,1,.12-.36.47.47,0,0,1,.36-.13h8.54a.45.45,0,0,1,.35.13.48.48,0,0,1,.13.36v.79a.45.45,0,0,1-.13.35.48.48,0,0,1-.35.12h-7v4.54H72.7a.45.45,0,0,1,.35.13.52.52,0,0,1,.12.36v.77a.49.49,0,0,1-.12.34.45.45,0,0,1-.35.13H66.12v4.7h7.2a.45.45,0,0,1,.35.13.48.48,0,0,1,.12.35v.8a.51.51,0,0,1-.12.35.45.45,0,0,1-.35.13Z"/><path class="cls-1" d="M77.15,38.1a.47.47,0,0,1-.36-.13.51.51,0,0,1-.12-.35V24.11a.52.52,0,0,1,.12-.36.47.47,0,0,1,.36-.13h.95a.51.51,0,0,1,.37.11c.08.08.13.13.14.18l6.87,10.55V24.11a.53.53,0,0,1,.13-.36.45.45,0,0,1,.35-.13h1a.51.51,0,0,1,.37.13.53.53,0,0,1,.13.36V37.6a.57.57,0,0,1-.13.36.48.48,0,0,1-.35.14H86a.44.44,0,0,1-.34-.12l-.16-.17L78.63,27.36V37.62a.48.48,0,0,1-.13.35.48.48,0,0,1-.36.13Z"/><path class="cls-1" d="M94.67,38.1a.45.45,0,0,1-.34-.13.48.48,0,0,1-.14-.35V25.46h-4a.46.46,0,0,1-.34-.14.45.45,0,0,1-.13-.34v-.87a.48.48,0,0,1,.13-.36.45.45,0,0,1,.34-.13h10a.45.45,0,0,1,.49.49V25a.45.45,0,0,1-.13.34.49.49,0,0,1-.36.14h-4V37.62a.48.48,0,0,1-.13.35.48.48,0,0,1-.36.13Z"/><path class="cls-1" d="M103.49,38.1a.47.47,0,0,1-.36-.13.51.51,0,0,1-.12-.35V24.11a.52.52,0,0,1,.12-.36.47.47,0,0,1,.36-.13h8.44a.45.45,0,0,1,.35.13.52.52,0,0,1,.12.36v.83a.43.43,0,0,1-.47.48H105v4.82h6.49a.47.47,0,0,1,.36.13.52.52,0,0,1,.12.36v.83a.49.49,0,0,1-.12.34.47.47,0,0,1-.36.14H105v5.58a.46.46,0,0,1-.5.48Z"/><path class="cls-1" d="M115.57,38.1a.45.45,0,0,1-.35-.13.48.48,0,0,1-.13-.35V24.11a.48.48,0,0,1,.13-.36.45.45,0,0,1,.35-.13h8.54a.47.47,0,0,1,.36.13.52.52,0,0,1,.12.36v.79a.48.48,0,0,1-.12.35.51.51,0,0,1-.36.12h-7v4.54h6.58A.45.45,0,0,1,124,30a.53.53,0,0,1,.13.36v.77a.49.49,0,0,1-.13.34.45.45,0,0,1-.35.13h-6.58v4.7h7.2a.45.45,0,0,1,.35.13.48.48,0,0,1,.13.35v.8a.52.52,0,0,1-.13.35.45.45,0,0,1-.35.13Z"/><path class="cls-1" d="M132.29,38.31a7.44,7.44,0,0,1-3-.55,4.65,4.65,0,0,1-1.88-1.43,3.39,3.39,0,0,1-.69-1.87.42.42,0,0,1,.14-.3.43.43,0,0,1,.32-.14h1.05a.5.5,0,0,1,.37.13.58.58,0,0,1,.17.29,2.26,2.26,0,0,0,.51,1,3.1,3.1,0,0,0,1.13.81,4.89,4.89,0,0,0,1.9.32,4.4,4.4,0,0,0,2.62-.63,2,2,0,0,0,.83-1.69,1.58,1.58,0,0,0-.44-1.17,4.13,4.13,0,0,0-1.36-.8c-.6-.23-1.39-.48-2.36-.76a14.16,14.16,0,0,1-2.5-.95,3.78,3.78,0,0,1-1.48-1.29,3.58,3.58,0,0,1-.48-1.94,3.39,3.39,0,0,1,.6-2,4,4,0,0,1,1.72-1.39,6.47,6.47,0,0,1,2.74-.52,6.66,6.66,0,0,1,2.25.34,4.76,4.76,0,0,1,1.6.91,4.39,4.39,0,0,1,1,1.22,3.16,3.16,0,0,1,.35,1.27.45.45,0,0,1-.11.28.39.39,0,0,1-.33.14h-1.09a.67.67,0,0,1-.3-.08.51.51,0,0,1-.24-.32,2.07,2.07,0,0,0-.95-1.42,3.68,3.68,0,0,0-2.16-.58,4.16,4.16,0,0,0-2.18.51,1.78,1.78,0,0,0-.84,1.62,1.71,1.71,0,0,0,.4,1.17,3.22,3.22,0,0,0,1.24.82A21.65,21.65,0,0,0,133,30a15.66,15.66,0,0,1,2.71,1,3.74,3.74,0,0,1,1.56,1.26,3.41,3.41,0,0,1,.51,1.94,3.64,3.64,0,0,1-.68,2.22,4.21,4.21,0,0,1-1.91,1.41A8,8,0,0,1,132.29,38.31Z"/><path class="cls-1" d="M144,38.1a.45.45,0,0,1-.34-.13.48.48,0,0,1-.14-.35V25.46h-4a.48.48,0,0,1-.48-.48v-.87a.49.49,0,0,1,.14-.36.45.45,0,0,1,.34-.13h10a.49.49,0,0,1,.37.13.48.48,0,0,1,.13.36V25a.45.45,0,0,1-.13.34.5.5,0,0,1-.37.14h-3.95V37.62a.48.48,0,0,1-.13.35.49.49,0,0,1-.37.13Z"/></g></g></svg>