<?xml version="1.0" encoding="UTF-8"?>
<svg version="1.1" xmlns="http://www.w3.org/2000/svg" width="548" height="548">
<path d="M0 0 C0.94228958 -0.00701431 1.88457916 -0.01402863 2.85542297 -0.02125549 C5.88022698 -0.03866509 8.90483523 -0.04510788 11.9296875 -0.046875 C12.9628006 -0.04754974 13.9959137 -0.04822449 15.06033325 -0.04891968 C30.19503005 -0.03319585 44.8988696 0.34732432 59.8046875 3.203125 C60.71976074 3.36941406 61.63483398 3.53570312 62.57763672 3.70703125 C111.20911905 12.71131737 158.02781266 34.48674753 194.546875 68.12890625 C196.57632213 69.99332913 198.64502906 71.79087054 200.7421875 73.578125 C208.75684579 80.59095101 216.02287656 88.15380752 222.64453125 96.4921875 C224.02196189 98.22082559 225.42837528 99.92702727 226.87109375 101.6015625 C238.65037802 115.3549073 248.51242125 131.12666068 256.8046875 147.203125 C257.20107422 147.96995605 257.59746094 148.73678711 258.00585938 149.52685547 C291.34150614 214.85900251 296.01780576 291.04257478 274.11328125 360.69921875 C270.21019486 372.56314568 265.23308891 383.96530309 259.8046875 395.203125 C259.42473633 395.99041992 259.04478516 396.77771484 258.65332031 397.58886719 C248.30229822 418.73790725 234.83814312 438.62132414 218.87890625 455.9453125 C217.01448337 457.97475963 215.21694196 460.04346656 213.4296875 462.140625 C206.41686149 470.15528329 198.85400498 477.42131406 190.515625 484.04296875 C188.78698691 485.42039939 187.08078523 486.82681278 185.40625 488.26953125 C171.04736152 500.56744362 154.57720833 510.56396613 137.8046875 519.203125 C137.07137207 519.58275391 136.33805664 519.96238281 135.58251953 520.35351562 C71.15699147 553.28866474 -5.15810565 557.06299192 -73.69140625 535.51171875 C-85.55533318 531.60863236 -96.95749059 526.63152641 -108.1953125 521.203125 C-108.98260742 520.82317383 -109.76990234 520.44322266 -110.58105469 520.05175781 C-131.73009475 509.70073572 -151.61351164 496.23658062 -168.9375 480.27734375 C-170.96694713 478.41292087 -173.03565406 476.61537946 -175.1328125 474.828125 C-183.14747079 467.81529899 -190.41350156 460.25244248 -197.03515625 451.9140625 C-198.41258689 450.18542441 -199.81900028 448.47922273 -201.26171875 446.8046875 C-213.55963112 432.44579902 -223.55615363 415.97564583 -232.1953125 399.203125 C-232.57494141 398.46980957 -232.95457031 397.73649414 -233.34570312 396.98095703 C-266.28085224 332.55542897 -270.05517942 256.24033185 -248.50390625 187.70703125 C-244.60081986 175.84310432 -239.62371391 164.44094691 -234.1953125 153.203125 C-233.81536133 152.41583008 -233.43541016 151.62853516 -233.04394531 150.81738281 C-222.69292322 129.66834275 -209.22876812 109.78492586 -193.26953125 92.4609375 C-191.40510837 90.43149037 -189.60756696 88.36278344 -187.8203125 86.265625 C-180.80748649 78.25096671 -173.24462998 70.98493594 -164.90625 64.36328125 C-163.17761191 62.98585061 -161.47141023 61.57943722 -159.796875 60.13671875 C-145.43798652 47.83880638 -128.96783333 37.84228387 -112.1953125 29.203125 C-111.46199707 28.82349609 -110.72868164 28.44386719 -109.97314453 28.05273438 C-82.03006052 13.76787453 -51.35325544 4.7811524 -20.1953125 1.203125 C-19.45097961 1.11692902 -18.70664673 1.03073303 -17.9397583 0.94192505 C-11.94626902 0.29265727 -6.026285 0.03015681 0 0 Z " fill="#FEFEFE" transform="translate(261.1953125,-0.203125)"/>
<path d="M0 0 C10.59718437 8.96322146 18.28073099 20.68484271 20.69921875 34.484375 C20.93545445 38.0447333 20.93010299 41.60439692 20.94921875 45.171875 C20.96984375 46.11482422 20.99046875 47.05777344 21.01171875 48.02929688 C21.09355807 62.91382276 14.73997751 75.70116577 4.69921875 86.484375 C-7.95214739 98.65914858 -22.76112495 102.96067583 -39.86694336 102.91381836 C-56.00817976 102.57175775 -69.12316711 95.23308067 -80.23828125 83.671875 C-89.73986165 72.42688535 -93.89239058 59.20297051 -93.80078125 44.671875 C-93.79506104 43.61524658 -93.78934082 42.55861816 -93.78344727 41.4699707 C-93.59349425 33.15744776 -92.42076077 26.81689551 -88.30078125 19.484375 C-87.78128906 18.52660156 -87.26179687 17.56882812 -86.7265625 16.58203125 C-78.7334706 2.99936459 -66.38966848 -6.72027965 -51.1640625 -11.0625 C-50.54917969 -11.21203125 -49.93429687 -11.3615625 -49.30078125 -11.515625 C-48.37265625 -11.7425 -47.44453125 -11.969375 -46.48828125 -12.203125 C-29.75255345 -13.84388263 -13.40465129 -10.62119367 0 0 Z " fill="#FEFEFE" transform="translate(310.30078125,107.515625)"/>
<path d="M0 0 C0.80356934 0.31066406 1.60713867 0.62132812 2.43505859 0.94140625 C30.86776668 12.14200872 56.50917178 29.32302633 75 54 C75.79792969 55.04414063 76.59585937 56.08828125 77.41796875 57.1640625 C97.56494761 84.04501404 114.50483009 123.6082864 110 158 C108.73083721 161.2771809 107.22081821 163.38959089 104 165 C100.6875 165.375 100.6875 165.375 97 165 C94.36983839 162.8272578 92.52663106 161.05326212 91 158 C90.89507146 156.64080521 90.84479081 155.27714623 90.82421875 153.9140625 C89.96120362 119.37354143 78.68800139 87.31808161 56 61 C55.16726563 60.03320312 54.33453125 59.06640625 53.4765625 58.0703125 C39.3225246 41.9769425 22.30369647 30.91385085 3 22 C1.83210937 21.4534375 0.66421875 20.906875 -0.5390625 20.34375 C-4.31522005 18.70267044 -8.0892274 17.28055817 -12 16 C-12.7434668 15.75588379 -13.48693359 15.51176758 -14.25292969 15.26025391 C-27.93275167 11.03027226 -41.49014534 10.54537509 -55.6875 10.5625 C-56.5535788 10.56227844 -57.41965759 10.56205688 -58.3119812 10.56182861 C-98.90006243 10.67240319 -133.66358189 27.80122867 -162.2421875 56.23046875 C-186.60296238 82.10837374 -199.66116083 115.92738115 -200.4296875 151.19726562 C-200.61129142 155.922751 -200.96745074 159.1472327 -204 163 C-207.20937409 165.32402951 -210.11506021 165.47570691 -214 165 C-217.33761045 162.84909549 -218.73470933 161.79587201 -220 158 C-222.93647033 118.95938631 -206.10019195 78.29819467 -181 49 C-157.26091355 21.4234545 -125.5552008 2.03965101 -90 -6 C-89.29037109 -6.16371094 -88.58074219 -6.32742188 -87.84960938 -6.49609375 C-59.52400238 -12.73339757 -27.08408553 -10.49151945 0 0 Z " fill="#777777" transform="translate(329,275)"/>
<path d="M0 0 C1.11955078 0.92425781 1.11955078 0.92425781 2.26171875 1.8671875 C3.10089844 2.54523438 3.94007813 3.22328125 4.8046875 3.921875 C19.33840938 16.27883672 29.00607597 33.90017384 31.26171875 52.8671875 C32.7116542 74.21649391 27.34333609 94.36040273 13.26171875 110.8671875 C12.83890625 111.43179688 12.41609375 111.99640625 11.98046875 112.578125 C4.356818 122.37362974 -6.45522324 128.24664855 -17.73828125 132.8671875 C-18.45628906 133.18429688 -19.17429687 133.50140625 -19.9140625 133.828125 C-35.7521111 140.45190516 -53.83814792 139.19188331 -69.73828125 133.8671875 C-70.640625 133.5784375 -71.54296875 133.2896875 -72.47265625 132.9921875 C-91.45778773 126.22042086 -105.5393408 111.0236108 -114.11328125 93.2421875 C-122.02730164 75.09036234 -123.70968327 54.56856088 -116.73828125 35.8671875 C-108.07945795 14.97502666 -93.51110996 -0.31648993 -72.75390625 -9.4453125 C-70.1035276 -10.46353707 -67.46385003 -11.33976799 -64.73828125 -12.1328125 C-63.98933594 -12.35710937 -63.24039063 -12.58140625 -62.46875 -12.8125 C-41.562431 -18.0123681 -17.07958547 -13.04891929 0 0 Z M-89.734375 25.0546875 C-94.23549043 30.47538565 -97.18705838 36.32191534 -99.73828125 42.8671875 C-100.28742188 44.16269531 -100.28742188 44.16269531 -100.84765625 45.484375 C-104.73604846 60.25344365 -102.49268096 77.12023818 -95.3515625 90.45703125 C-93.93595004 92.72588957 -92.41158559 94.78254581 -90.73828125 96.8671875 C-90.18785156 97.60195312 -89.63742188 98.33671875 -89.0703125 99.09375 C-81.30949203 108.72444833 -69.03135156 116.84732502 -56.73828125 118.8671875 C-38.7270785 120.43882694 -22.88045954 117.9557525 -8.11328125 106.90234375 C2.3065263 98.11857306 9.86866758 86.37207204 12.26171875 72.8671875 C13.71561401 53.31079223 11.0263599 37.92081929 -1.98828125 22.6796875 C-13.52845598 10.40863504 -28.77115068 4.08179631 -45.55078125 3.5546875 C-63.55679495 3.96914817 -77.76027797 11.93238939 -89.734375 25.0546875 Z " fill="#777777" transform="translate(318.73828125,91.1328125)"/>
</svg>
